{"title":"Purani Jeans (2014) PreDVD X264 1CD{VikkyMaxx}[SilverRG]","uid":10087336,"size":741774644,"categoryP":"video","categoryS":"movies","magnet":"?xt=urn:btih:a9b60e8f55de3f08adb2389cb310e5403804b77f&amp;dn=Purani+Jeans+%282014%29+PreDVD+X264+1CD%7BVikkyMaxx%7D%5BSilverRG%5D&amp;tr=udp%3A%2F%2Ftracker.openbittorrent.com%3A80&amp;tr=udp%3A%2F%2Fopen.demonii.com%3A1337&amp;tr=udp%3A%2F%2Ftracker.coppersurfer.tk%3A6969&amp;tr=udp%3A%2F%2Fexodus.desync.com%3A6969","seeders":1,"leechers":0,"uploader":"shailendramaxx","files":18,"time":1399128776,"description":"VikkyMaxx SilverRG Presents\n\n\nGeneral:-\n \nComplete name :Purani Jeans (2014) PreDVD X264 1CD{VikkyMaxx}[SilverRG]\nFormat : Matroska \nFormat version : Version 2 \nFile size : 699 MiB \nDuration : 2h 2mn \nOverall bit rate mode : Variable \nOverall bit rate : 795 Kbps \nEncoded date : UTC 2014-05-02 21:07:53 \nWriting application : mkvmerge v6.9.1 ('Blue Panther') 32bit built on Apr 18 2014 18:15:44 \nWriting library : libebml v1.3.0 + libmatroska v1.4.1 \n\nVideo:-\n \nID : 1 \nFormat : AVC \nFormat/Info : Advanced Video Codec \nFormat profile : &lt;a class=&quot;__cf_email__&quot; href=&quot;/cdn-cgi/l/email-protection&quot; data-cfemail=&quot;f2ba9b959ab2bec0dcc3&quot;&gt;[email&amp;#160;protected]&lt;/a&gt;&lt;script cf-hash='f9e31' type=&quot;text/javascript&quot;&gt;\n/* &lt;![CDATA[ */!function(){try{var t=&quot;currentScript&quot;in document?document.currentScript:function(){for(var t=document.getElementsByTagName(&quot;script&quot;),e=t.length;e--;)if(t[e].getAttribute(&quot;cf-hash&quot;))return t[e]}();if(t&amp;&amp;t.previousSibling){var e,r,n,i,c=t.previousSibling,a=c.getAttribute(&quot;data-cfemail&quot;);if(a){for(e=&quot;&quot;,r=parseInt(a.substr(0,2),16),n=2;a.length-n;n+=2)i=parseInt(a.substr(n,2),16)^r,e+=String.fromCharCode(i);e=document.createTextNode(e),c.parentNode.replaceChild(e,c)}}}catch(u){}}();/* ]]&gt; */&lt;/script&gt; \nFormat settings, CABAC : Yes \nFormat settings, ReFrames : 4 frames \nCodec ID : V_MPEG4/ISO/AVC \nDuration : 2h 2mn \nBit rate : 717 Kbps \nWidth : 640 pixels \nHeight : 272 pixels \nDisplay aspect ratio : 2.35:1 \nFrame rate mode : Constant \nFrame rate : 25.000 fps \nColor space : YUV \nChroma subsampling : 4:2:0 \nBit depth : 8 bits \nScan type : Progressive \nBits/(Pixel*Frame) : 0.165 \nStream size : 615 MiB (88%) \nWriting library : x264 core 142 r2409 d6b4e63 \nEncoding settings : cabac=1 / ref=3 / deblock=1:0:0  \nLanguage : Hindi\nDefault : Yes \nForced : No \n\nAudio:-\n \nID : 2 \nFormat : MPEG Audio \nFormat version : Version 1 \nFormat profile : Layer 3 \nMode : Joint stereo \nMode extension : MS Stereo \nCodec ID : A_MPEG/L3 \nCodec ID/Hint : MP3 \nDuration : 1h 57mn \nBit rate mode : Variable \nBit rate : 80.0 Kbps \nChannel(s) : 2 channels \nSampling rate : 32.0 KHz \nCompression mode : Lossy \nStream size : 67.1 MiB (10%) \nWriting library : LAME3.99r \nEncoding settings : -m j -V 4 -q 2 -lowpass 13.5 --abr 80 \nDefault : Yes \nForced : No \nLanguage: HINDI\n\n\n\nSCREENS:-\n\n &lt;a href=&quot;\nhttp://i.imgur.com/Eb0D6b7.png&quot; rel=&quot;nofollow&quot; target=&quot;_NEW&quot;&gt;\nhttp://i.imgur.com/Eb0D6b7.png&lt;/a&gt;\n &lt;a href=&quot;\nhttp://i.imgur.com/XPzbllL.png&quot; rel=&quot;nofollow&quot; target=&quot;_NEW&quot;&gt;\nhttp://i.imgur.com/XPzbllL.png&lt;/a&gt;\n &lt;a href=&quot;\nhttp://i.imgur.com/EEgnqV7.png&quot; rel=&quot;nofollow&quot; target=&quot;_NEW&quot;&gt;\nhttp://i.imgur.com/EEgnqV7.png&lt;/a&gt;\n &lt;a href=&quot;\nhttp://i.imgur.com/r822fAn.png&quot; rel=&quot;nofollow&quot; target=&quot;_NEW&quot;&gt;\nhttp://i.imgur.com/r822fAn.png&lt;/a&gt;\n &lt;a href=&quot;\nhttp://i.imgur.com/mbFAmib.png&quot; rel=&quot;nofollow&quot; target=&quot;_NEW&quot;&gt;\nhttp://i.imgur.com/mbFAmib.png&lt;/a&gt;\n &lt;a href=&quot;\nhttp://i.imgur.com/6S0zuYF.png&quot; rel=&quot;nofollow&quot; target=&quot;_NEW&quot;&gt;\nhttp://i.imgur.com/6S0zuYF.png&lt;/a&gt;\n &lt;a href=&quot;\nhttp://i.imgur.com/5bB5Eu5.png&quot; rel=&quot;nofollow&quot; target=&quot;_NEW&quot;&gt;\nhttp://i.imgur.com/5bB5Eu5.png&lt;/a&gt;\n &lt;a href=&quot;\nhttp://i.imgur.com/0Y9glIa.png&quot; rel=&quot;nofollow&quot; target=&quot;_NEW&quot;&gt;\nhttp://i.imgur.com/0Y9glIa.png&lt;/a&gt;\n &lt;a href=&quot;\nhttp://i.imgur.com/nsURpAJ.png&quot; rel=&quot;nofollow&quot; target=&quot;_NEW&quot;&gt;\nhttp://i.imgur.com/nsURpAJ.png&lt;/a&gt;\n &lt;a href=&quot;\nhttp://i.imgur.com/HesEZlr.png&quot; rel=&quot;nofollow&quot; target=&quot;_NEW&quot;&gt;\nhttp://i.imgur.com/HesEZlr.png&lt;/a&gt;\n\n\n\n\nSAMPLE AND SCREENSHOTS INCLUDED\n\n    \n             \n             ********** PLEASE SEED AS LONG AS YOU CAN AFTER DOWNLOAD **********\n       \n                    ***** THANK YOU REGARDS - VIKKYMAXX (SilverRG) *****\n\t\t\t\t\n","torrent":{"xt":"urn:btih:a9b60e8f55de3f08adb2389cb310e5403804b77f","amp;dn":"Purani+Jeans+%282014%29+PreDVD+X264+1CD%7BVikkyMaxx%7D%5BSilverRG%5D","amp;tr":["udp%3A%2F%2Ftracker.openbittorrent.com%3A80","udp%3A%2F%2Fopen.demonii.com%3A1337","udp%3A%2F%2Ftracker.coppersurfer.tk%3A6969","udp%3A%2F%2Fexodus.desync.com%3A6969"],"infoHash":"a9b60e8f55de3f08adb2389cb310e5403804b77f","infoHashBuffer":{"type":"Buffer","data":[169,182,14,143,85,222,63,8,173,178,56,156,179,16,229,64,56,4,183,127]},"announce":[],"urlList":[]}}